<mxfile host="Electron" modified="2023-08-31T01:22:25.641Z" agent="Mozilla/5.0 (Windows NT 10.0; Win64; x64) AppleWebKit/537.36 (KHTML, like Gecko) draw.io/21.6.8 Chrome/114.0.5735.289 Electron/25.5.0 Safari/537.36" etag="n77DmBpRJqyiDsDiIi_3" version="21.6.8" type="device">
  <diagram id="kgpKYQtTHZ0yAKxKKP6v" name="Page-1">
    <mxGraphModel dx="1080" dy="645" grid="1" gridSize="10" guides="1" tooltips="1" connect="1" arrows="1" fold="1" page="1" pageScale="1" pageWidth="850" pageHeight="1100" math="0" shadow="0">
      <root>
        <mxCell id="0" />
        <mxCell id="1" parent="0" />
        <mxCell id="PeCGJ06TXOLZpOecFhSK-28" value="Teh Starbuck" style="text;html=1;align=center;verticalAlign=middle;resizable=0;points=[];autosize=1;strokeColor=none;fillColor=none;" vertex="1" parent="1">
          <mxGeometry x="425" y="100" width="90" height="30" as="geometry" />
        </mxCell>
        <mxCell id="PeCGJ06TXOLZpOecFhSK-32" value="" style="edgeStyle=orthogonalEdgeStyle;rounded=0;orthogonalLoop=1;jettySize=auto;html=1;entryX=0.5;entryY=0;entryDx=0;entryDy=0;" edge="1" parent="1" source="PeCGJ06TXOLZpOecFhSK-30" target="PeCGJ06TXOLZpOecFhSK-43">
          <mxGeometry relative="1" as="geometry" />
        </mxCell>
        <mxCell id="PeCGJ06TXOLZpOecFhSK-30" value="&lt;font style=&quot;font-size: 39px;&quot;&gt;Mulai&lt;/font&gt;" style="ellipse;whiteSpace=wrap;html=1;" vertex="1" parent="1">
          <mxGeometry x="365" y="50" width="190" height="110" as="geometry" />
        </mxCell>
        <mxCell id="PeCGJ06TXOLZpOecFhSK-47" style="edgeStyle=orthogonalEdgeStyle;rounded=0;orthogonalLoop=1;jettySize=auto;html=1;entryX=0;entryY=0.5;entryDx=0;entryDy=0;" edge="1" parent="1" source="PeCGJ06TXOLZpOecFhSK-42" target="PeCGJ06TXOLZpOecFhSK-46">
          <mxGeometry relative="1" as="geometry" />
        </mxCell>
        <mxCell id="PeCGJ06TXOLZpOecFhSK-44" style="edgeStyle=orthogonalEdgeStyle;rounded=0;orthogonalLoop=1;jettySize=auto;html=1;entryX=0.5;entryY=0;entryDx=0;entryDy=0;" edge="1" parent="1" source="PeCGJ06TXOLZpOecFhSK-43" target="PeCGJ06TXOLZpOecFhSK-42">
          <mxGeometry relative="1" as="geometry" />
        </mxCell>
        <mxCell id="PeCGJ06TXOLZpOecFhSK-43" value="&lt;font style=&quot;font-size: 17px;&quot;&gt;Siapkan, Air, Pop Mie, Panci&lt;/font&gt;" style="shape=hexagon;perimeter=hexagonPerimeter2;whiteSpace=wrap;html=1;fixedSize=1;" vertex="1" parent="1">
          <mxGeometry x="370" y="220" width="180" height="110" as="geometry" />
        </mxCell>
        <mxCell id="PeCGJ06TXOLZpOecFhSK-46" value="&lt;font style=&quot;font-size: 19px;&quot;&gt;beli di mini market&amp;nbsp;&lt;/font&gt;" style="rounded=0;whiteSpace=wrap;html=1;" vertex="1" parent="1">
          <mxGeometry x="650" y="430" width="130" height="80" as="geometry" />
        </mxCell>
        <mxCell id="PeCGJ06TXOLZpOecFhSK-42" value="&lt;span style=&quot;font-size: 18px;&quot;&gt;apakah ada pop mie ?&lt;/span&gt;" style="rhombus;whiteSpace=wrap;html=1;" vertex="1" parent="1">
          <mxGeometry x="360" y="400" width="200" height="140" as="geometry" />
        </mxCell>
      </root>
    </mxGraphModel>
  </diagram>
</mxfile>
